<?xml version="1.0" encoding="UTF-8"?>
<svg width="150px" height="150px" viewBox="0 0 150 150" version="1.1" xmlns="http://www.w3.org/2000/svg" xmlns:xlink="http://www.w3.org/1999/xlink">
    <title>Slice 1</title>
    <g id="Page-1" stroke="none" stroke-width="1" fill="none" fill-rule="evenodd">
        <g id="app-icon" transform="translate(0.003, 0.001)" fill-rule="nonzero">
            <g id="Group" fill="#E91315">
                <rect id="second-gradient-2" x="0" y="0" width="150" height="150" rx="5"></rect>
            </g>
            <g id="logo" transform="translate(13.997, 13.999)" fill="#FFFFFF">
                <path d="M64.7389597,52.6295189 C67.3073323,51.7377758 68.973301,49.1906985 69,46.5154682 C68.9626215,43.4290747 66.8107456,40.7805455 63.7885025,40.1344319 C61.1667329,39.5737549 58.368757,40.8072463 56.9697684,43.0819925 C55.5547605,45.3780988 55.6882517,48.4004123 57.3702422,50.5309853 C59.121648,52.7523336 62.0904924,53.5426203 64.7389597,52.6241789 L64.7389597,52.6295189 Z M62.4963075,43.7174238 C64.0448066,43.7174238 65.2942839,44.9722712 65.2942839,46.5154682 C65.2942839,48.0586652 64.0394669,49.3135156 62.4963075,49.3135156 C60.9531479,49.3135156 59.6983307,48.0586652 59.6983307,46.5154682 C59.6983307,44.9722712 60.9531479,43.7174238 62.4963075,43.7174238 Z" id="Fill-55"></path>
                <path d="M48,69 L48,63 C45.3333333,64.1179116 42.6666667,65.2358258 40,66.348337 C42.6666667,67.2340257 45.3333333,68.1143114 48,69 Z" id="Fill-56"></path>
                <path d="M40,50 C42.6666667,52.3353499 45.3333333,54.6646499 48,57 L48,50 L40,50 Z" id="Fill-57"></path>
                <path d="M27.1810276,54.0268045 C24.6635631,52.5924761 21.278558,52.777723 18.6652919,53.8627315 C18.4896547,53.9368299 18.314018,54.0162188 18.1437032,54.1009024 C18.0958023,54.1220731 18.0479011,54.1485369 18,54.175 C18.2554721,54.1908787 18.5215883,54.1538297 18.7770603,54.1591227 C19.4689639,54.1750007 20.1661892,54.2543944 20.8368032,54.4184693 C21.9332043,54.688398 22.9444487,55.2282544 23.5778066,56.1862368 C23.9982712,56.8266569 24.2484198,57.7158364 23.8492446,58.4250615 C23.3276562,59.3565808 22.0875519,59.4518484 21.1401764,59.3989208 C21.198722,59.393628 21.4541952,59.7270694 21.5446748,59.811753 C21.7203119,59.9811202 21.9065921,60.1346091 22.1088412,60.2669274 C22.6410744,60.6215403 23.2425002,60.8491267 23.8758582,60.9443954 C25.5470715,61.1931538 27.5535894,60.584492 28.8948182,59.573582 C29.7463911,58.9278696 30.2307247,57.9963482 29.8900954,56.9378031 C29.4909212,55.6940127 28.2880723,54.6460563 27.1863488,54.0215147 L27.1810276,54.0268045 Z" id="Fill-58"></path>
                <path d="M103.966475,56.350908 C103.788471,48.9746545 100.913497,41.9395922 95.8863298,36.5400861 C92.8926832,33.3285468 89.2409801,30.8589531 85.211698,29.2396479 L87.6066093,29.2396479 C91.2313482,29.2396479 94.3975958,28.4489431 97.0244591,26.8946337 C100.48198,24.8474783 103.000957,21.6630097 103.772293,18.3756501 C104.457324,15.4619694 103.340776,12.0825432 101.059134,10.1599473 C99.7214295,9.03347853 98.1625785,8.45940987 96.4257238,8.45940987 C95.6436019,8.45940987 94.8291129,8.58396957 94.0038383,8.8222645 C93.9714713,7.77701813 93.7988704,6.81301411 93.4914086,5.90858368 C92.3317077,2.52915744 89.2787398,0.395347511 85.1199997,0.0433271689 C84.7855735,0.0162464409 84.4403517,0 84.1005328,0 C79.9579811,0 76.3817926,2.00382827 74.1109367,3.68812923 C72.4280254,4.93375536 70.9015365,6.35809281 69.5422605,7.93949284 C69.0352286,7.34376542 68.4526768,6.84009483 67.8107939,6.43933516 C66.6618838,5.72986252 65.3079956,5.36700807 63.7868995,5.36700807 C63.2205363,5.36700807 62.6272037,5.41575737 62.0122949,5.5186485 C58.9539243,6.01690693 56.1059094,7.85283834 53.3064501,11.1293735 C51.3592295,13.4094018 49.54686,16.1443613 47.7776433,19.4912945 C46.7635793,21.4138904 45.9383097,23.1631774 45.2586716,24.8420562 C44.843333,25.8656337 45.0483058,27.0625107 45.7926729,27.9831975 C45.8358255,28.0427713 45.8843661,28.0969227 45.9329118,28.1510843 C45.3989105,28.7359873 45.0698823,29.515848 45.0698823,30.371539 L45.0698823,45.5302324 L35.5819178,45.5302324 C34.2064585,45.5302324 32.9550619,46.4509142 32.4696062,47.815683 C32.3671198,48.1081344 32.3131813,48.4060031 32.2916076,48.6984495 C32.0542724,48.4114153 31.8115447,48.1297931 31.5472405,47.853593 C30.1879646,46.4400799 28.6722639,45.2269518 27.0325003,44.2575305 C24.2384338,42.6003104 21.1099386,41.7229609 17.9868389,41.7229609 C16.5844116,41.7229609 15.19277,41.901682 13.8388881,42.2482901 L13.7310087,42.2753709 C13.2725224,42.3782669 12.0534891,42.6490548 11.5356689,43.8730123 C11.2390014,44.5716457 11.2767599,45.3136062 11.6003967,45.9472487 C10.8020913,46.3046861 10.0846954,46.7596123 9.45899649,47.3011879 C8.6552976,47.9998163 8.14287209,48.8013456 7.68978034,49.5162255 C7.56571932,49.705781 7.44705179,49.9007484 7.3175968,50.090299 C6.6433529,51.086801 5.91516873,51.947899 5.16001517,52.6519495 C4.36710391,53.3884929 3.64431389,53.870495 2.94849359,54.114207 C2.8945543,54.1250362 2.82982671,54.1358657 2.76509913,54.1521172 C2.07467298,54.282094 0.79630578,54.5258011 0.224546827,55.7335122 C0.0303644154,56.145111 -0.212363478,56.9845505 0.337819724,57.9918818 C0.693820841,58.6471879 1.22782227,59.1454363 1.65394461,59.546206 C1.74024795,59.6274384 1.8211573,59.7032586 1.89667267,59.7736666 C2.60867458,60.4722948 3.34225223,61.0896958 4.07043607,61.5987736 C5.66165273,62.7090058 7.22589981,63.2776575 8.7146312,63.2776575 C8.75778271,63.2776575 8.80093421,63.2776575 8.84408571,63.2776575 C8.68226733,63.5267817 8.56360045,63.8029867 8.49887321,64.1062676 C8.40717623,64.5178615 8.23996321,65.9367916 9.84736164,66.879132 C11.4547601,67.8214726 13.2887046,68.6663242 15.2952563,69.3920333 C17.7980507,70.2964635 19.9987835,70.7405603 22.0269091,70.7405603 C22.1995175,70.7405603 22.3667306,70.7405554 22.5393364,70.729726 C24.7724327,70.6430715 27.0486839,69.976941 29.114567,68.8017231 C30.2095409,68.1789099 31.2829364,67.3773806 32.4318489,66.326722 C32.3347577,66.6516715 32.2862122,66.9982795 32.3023957,67.355717 C32.3563341,68.7746472 33.3056691,70.0798371 34.6002183,70.5293463 L45.0752751,74.136238 L45.0752751,102.558105 C45.0752751,103.662925 45.0644893,104.762323 45.0536986,105.867133 C45.0321223,108.071341 45.0105508,110.356792 45.0752751,112.631408 L45.0752751,112.696394 C45.0752751,114.516089 46.5532184,116 48.3655879,116 L74.5262655,116 C74.5694182,116 74.6179637,116 74.6611165,116 C75.4809983,115.978341 76.2577323,115.637145 76.8564577,115.035996 L103.017135,88.7695924 C103.599682,88.1846994 103.939511,87.4319096 103.971868,86.6303802 L103.971868,86.5816408 L103.977261,64.3608088 C103.977261,63.5213646 103.982654,62.6873422 103.988057,61.8478978 C103.999956,60.0498666 104.015021,58.1922666 103.966475,56.350908 Z M47.0656433,25.5785995 C47.7776433,23.8130663 48.6137087,22.0908502 49.5037124,20.4065493 C50.9978392,17.5795329 52.7077198,14.8337492 54.7897862,12.4020705 C56.7585781,10.1003735 59.2613762,7.944905 62.3359303,7.44665655 C63.8570264,7.19753714 65.4590303,7.27335735 66.8021226,8.10196755 C67.8863085,8.77351504 68.6576498,9.80251497 69.1485033,10.9723109 C69.2132272,11.1239513 69.2671608,11.2756017 69.326497,11.4272422 C70.9554699,9.06055943 72.9836029,6.95924222 75.2760354,5.2586948 C78.0215562,3.22237366 81.4952607,1.69513525 84.9743628,1.98758183 C87.9248568,2.2312889 90.6595971,3.60688689 91.6682583,6.54222612 C92.2616006,8.27526659 92.1375354,10.2141089 91.7491709,12.0229694 C94.219602,10.4090765 97.331911,9.55880788 99.8185305,11.6547028 C101.533804,13.1007088 102.402231,15.7490038 101.889801,17.9315532 C101.172404,20.9968744 98.6750083,23.6614258 96.048155,25.215745 C93.4806228,26.7375712 90.562496,27.2899812 87.6173949,27.2899812 L48.3709807,27.2899812 C48.3709807,27.2899812 48.3548023,27.2899812 48.3494095,27.2899812 C48.2954661,27.2899812 48.2415276,27.279147 48.1875842,27.2737248 C47.8046175,27.2249853 47.5187369,27.040852 47.3353403,26.7808984 C47.0548577,26.4451247 46.903828,25.9847813 47.0710361,25.5731874 L47.0656433,25.5785995 Z M31.9356049,64.1116846 C30.7920879,65.2489927 29.5622652,66.3050634 28.1544412,67.1065927 C26.4283772,68.0868432 24.4487971,68.7042391 22.4638216,68.7800593 C20.2469055,68.8612969 18.0192022,68.3088916 15.9479238,67.5561018 C14.1894952,66.9224593 12.4364594,66.1425886 10.8236677,65.1948361 C10.5701517,65.0431908 10.3220296,64.8590524 10.3921517,64.5232787 C10.4460913,64.2687372 10.6672428,64.122514 10.9099705,64.1062676 C11.4925174,64.0683574 12.1451861,64.3337281 12.7439152,64.366221 C13.2887046,64.3932969 13.8334939,64.366221 14.3674953,64.263325 C15.0956787,64.122514 16.0126517,63.8029817 16.3578648,63.0772726 C16.6815015,62.3894737 16.2715605,61.609603 15.7591356,61.1384301 C14.1247674,59.6545141 11.6489423,60.5643666 9.85814976,61.1492646 C8.21838812,61.6854281 6.51389792,60.9380505 5.17619678,60.0011271 C4.49116477,59.5191251 3.84928392,58.9721323 3.25055525,58.3818171 C2.86219026,57.9972988 2.30121926,57.5423726 2.03152147,57.0549536 C1.53527774,56.1505232 3.05637267,56.1342767 3.53104066,55.971802 C4.6368012,55.5927011 5.61850139,54.8724091 6.4707464,54.0817091 C7.39850631,53.2206012 8.20220585,52.2349384 8.91420825,51.189697 C9.48596688,50.3502576 9.93905863,49.4566517 10.7211824,48.779687 C11.9456097,47.718199 13.5314324,47.198287 15.117255,46.9924899 C15.4139226,46.9545799 15.7159829,46.9220819 16.0180445,46.9058355 C16.045015,46.9058355 16.1259238,46.8950012 16.206834,46.8841719 C15.8778019,46.6458769 15.6242871,46.2884395 15.2736799,46.0555617 C14.7936172,45.7360344 14.2757981,45.5248203 13.7256148,45.3840092 C13.7256148,45.3840092 13.7148264,45.3840092 13.7094336,45.3840092 C13.6932514,45.3840092 13.6824633,45.373175 13.666281,45.373175 C13.6500999,45.373175 13.6393118,45.3623456 13.6285236,45.3569285 C13.6123425,45.3515112 13.6015544,45.3515164 13.5853721,45.340682 C13.5853721,45.340682 13.579978,45.3352698 13.5745839,45.3298526 C13.5476148,45.3136062 13.5260384,45.2973548 13.5098561,45.275691 C13.3156739,45.1240506 13.2077958,44.9020073 13.315675,44.6474659 C13.4720999,44.2791941 13.9845247,44.2304547 14.3243438,44.1438001 C18.3320519,43.1093932 22.5069719,43.8405194 26.0454055,45.9472487 C27.5503205,46.8408495 28.9365656,47.956494 30.1502047,49.2183617 C31.3368747,50.4585707 32.1945138,51.9045768 33.2625187,53.2368525 C34.0176716,54.1791928 34.8429438,55.0673768 35.7059758,55.906816 C36.1159167,56.3075807 36.5312504,56.6975161 36.9573747,57.0820343 C37.2594363,57.3528221 37.5776789,57.6019464 37.7718612,57.9702182 C38.1224683,58.6417707 38.0199819,59.5082908 37.5129499,60.0769472 C37.2216765,60.4018918 36.8279165,60.5481201 36.4503402,60.7484999 C35.93252,61.0192878 35.425493,61.3225685 34.9238537,61.6258494 C33.7587603,62.3244826 32.9011235,63.1639271 31.9356049,64.1116846 Z M102.035438,64.3608088 L102.035438,86.4300003 C102.035438,86.4300003 102.035438,86.4570713 102.035438,86.4679055 C102.035438,86.7820108 101.927561,87.101548 101.641681,87.3885823 C100.562883,88.4717338 99.4894974,89.5548853 98.4107091,90.6326146 C93.7233605,95.3389093 89.0360119,100.045194 84.3432704,104.756901 L75.4809983,113.654986 C75.1951177,113.94202 74.8714822,114.055756 74.5640303,114.050852 C74.5532396,114.050852 74.5424539,114.050852 74.5316683,114.050852 L48.3709807,114.050852 C47.6427972,114.050852 47.0224955,113.427525 47.0224955,112.696394 C47.0224955,112.647654 47.0224955,112.604327 47.0224955,112.555588 C46.9254044,109.230313 47.0224955,105.88338 47.0224955,102.558105 L47.0224955,72.7443885 C46.8229206,72.6739805 46.6233404,72.6089896 46.4291581,72.5385866 C42.6965422,71.2550503 38.9693169,69.971524 35.2367011,68.6825755 C34.2603943,68.3468018 33.7587577,66.7112403 34.9130656,66.2075796 C35.4362786,65.980114 35.9648894,65.7526583 36.4881027,65.5197805 C39.9995671,63.9925372 43.5110312,62.4652939 47.0224955,60.9326331 L47.0224955,59.9361362 C46.6179475,59.6057795 46.2133994,59.275418 45.8142443,58.9450564 C42.0924191,55.8959868 38.3651963,52.8469171 34.6433661,49.7978476 C33.7048193,49.0288111 34.5139155,47.4853214 35.598099,47.4853214 L47.0278834,47.4853214 L47.0278834,30.3769511 C47.0278834,29.6458297 47.64819,29.0230216 48.3763737,29.0230216 L74.1163295,29.0230216 C74.9631805,29.0230216 75.8154243,29.0609267 76.6622754,29.1421591 C83.4316904,29.7866358 89.8289196,32.8790378 94.4839011,37.8723569 C99.160454,42.8873446 101.873623,49.5270598 102.040831,56.3996475 C102.105565,59.0533697 102.051627,61.7125038 102.051627,64.3608088 L102.035438,64.3608088 Z" id="Fill-59"></path>
                <path d="M76,87 L76,109 C76.3138136,108.686186 76.6331337,108.366875 76.9469474,108.05306 L91.305304,93.694698 L98,87 L76,87 Z" id="Fill-60"></path>
                <path d="M90.8738453,37.9494479 C87.8165273,35.0861052 84.0912742,33.0649248 80.0999258,32 C84.9384159,34.9013757 88.0554635,40.3835601 88.0554635,46.9143753 C88.0554635,56.1400925 80.1759457,63.3500643 71.905439,63.3500643 C68.8101099,63.3500643 65.8885555,62.7741367 63.4068609,61.3017152 C61.810322,60.5247542 59.8390859,60.758391 58.4597624,62.046078 C57.5691765,62.8773711 57.0967307,63.9911978 57.0587176,65.1213188 C57.0098438,66.5068054 57.7049355,67.8053619 58.7855862,68.6746876 C59.1331319,68.9517869 59.670743,69.419053 60.4798735,70.2068783 C61.1043707,70.8099741 61.4953596,71.6195307 61.7017151,72.5051581 C62.6140222,76.4116893 59.7793526,80.3345271 55.7717143,80.4214622 C53.3931974,80.4703594 51.1993132,79.2532984 50.2001188,77.281015 C49.7711169,76.4388528 49.363837,75.5097704 49,74.3090134 L49,111 L72.6222578,111 L72.6222578,86.0068807 C72.6222578,85.2733874 73.2467538,84.6485577 73.9798581,84.6485577 L98.9325646,84.6485577 C98.9325646,84.0237281 98.9597161,83.3988985 98.9597161,82.7849333 L98.9597161,62.8773711 C98.9597161,60.1444259 99.0846197,57.3734526 98.8945546,54.6459373 C98.4492627,48.3052915 95.5114066,42.2906472 90.8792719,37.9603125 L90.8738453,37.9494479 Z" id="Fill-61"></path>
            </g>
        </g>
    </g>
</svg>